<mxfile host="app.diagrams.net" modified="2022-05-16T08:45:42.693Z" agent="5.0 (Macintosh; Intel Mac OS X 10_15_7) AppleWebKit/537.36 (KHTML, like Gecko) Chrome/101.0.4951.54 Safari/537.36" etag="3zK0INdvYYDFFGxmo9c0" version="18.0.4" type="github">
  <diagram id="yjjgRPk1Csc3Iw3m8RqL" name="Page-1">
    <mxGraphModel dx="946" dy="522" grid="1" gridSize="10" guides="1" tooltips="1" connect="1" arrows="1" fold="1" page="1" pageScale="1" pageWidth="827" pageHeight="1169" math="0" shadow="0">
      <root>
        <mxCell id="0" />
        <mxCell id="1" parent="0" />
        <mxCell id="kyEBUp9ZziMgpIwShTHc-1" value="DSP前端" style="rounded=0;whiteSpace=wrap;html=1;" vertex="1" parent="1">
          <mxGeometry x="50" y="90" width="120" height="60" as="geometry" />
        </mxCell>
        <mxCell id="kyEBUp9ZziMgpIwShTHc-28" style="edgeStyle=orthogonalEdgeStyle;rounded=0;orthogonalLoop=1;jettySize=auto;html=1;exitX=0.25;exitY=1;exitDx=0;exitDy=0;entryX=0.25;entryY=0;entryDx=0;entryDy=0;" edge="1" parent="1" source="kyEBUp9ZziMgpIwShTHc-2" target="kyEBUp9ZziMgpIwShTHc-3">
          <mxGeometry relative="1" as="geometry" />
        </mxCell>
        <mxCell id="kyEBUp9ZziMgpIwShTHc-29" value="获取插件前端地址" style="edgeLabel;html=1;align=center;verticalAlign=middle;resizable=0;points=[];" vertex="1" connectable="0" parent="kyEBUp9ZziMgpIwShTHc-28">
          <mxGeometry x="0.0286" relative="1" as="geometry">
            <mxPoint as="offset" />
          </mxGeometry>
        </mxCell>
        <mxCell id="kyEBUp9ZziMgpIwShTHc-30" style="edgeStyle=orthogonalEdgeStyle;rounded=0;orthogonalLoop=1;jettySize=auto;html=1;exitX=1;exitY=0;exitDx=0;exitDy=0;entryX=0;entryY=0.5;entryDx=0;entryDy=0;" edge="1" parent="1" source="kyEBUp9ZziMgpIwShTHc-2" target="kyEBUp9ZziMgpIwShTHc-9">
          <mxGeometry relative="1" as="geometry">
            <Array as="points">
              <mxPoint x="200" y="220" />
              <mxPoint x="200" y="130" />
            </Array>
          </mxGeometry>
        </mxCell>
        <mxCell id="kyEBUp9ZziMgpIwShTHc-31" value="获取插件plugin.json" style="edgeLabel;html=1;align=center;verticalAlign=middle;resizable=0;points=[];" vertex="1" connectable="0" parent="kyEBUp9ZziMgpIwShTHc-30">
          <mxGeometry x="0.1355" y="-2" relative="1" as="geometry">
            <mxPoint as="offset" />
          </mxGeometry>
        </mxCell>
        <mxCell id="kyEBUp9ZziMgpIwShTHc-2" value="DSP后端" style="rounded=0;whiteSpace=wrap;html=1;" vertex="1" parent="1">
          <mxGeometry x="50" y="220" width="120" height="60" as="geometry" />
        </mxCell>
        <mxCell id="kyEBUp9ZziMgpIwShTHc-3" value="DSP Appserver" style="rounded=0;whiteSpace=wrap;html=1;" vertex="1" parent="1">
          <mxGeometry x="50" y="350" width="120" height="60" as="geometry" />
        </mxCell>
        <mxCell id="kyEBUp9ZziMgpIwShTHc-5" value="" style="endArrow=classic;startArrow=classic;html=1;rounded=0;exitX=0.5;exitY=0;exitDx=0;exitDy=0;entryX=0.5;entryY=1;entryDx=0;entryDy=0;" edge="1" parent="1" source="kyEBUp9ZziMgpIwShTHc-2" target="kyEBUp9ZziMgpIwShTHc-1">
          <mxGeometry width="50" height="50" relative="1" as="geometry">
            <mxPoint x="160" y="210" as="sourcePoint" />
            <mxPoint x="210" y="160" as="targetPoint" />
          </mxGeometry>
        </mxCell>
        <mxCell id="kyEBUp9ZziMgpIwShTHc-7" value="获取插件扩展点和地址相关信息" style="edgeLabel;html=1;align=center;verticalAlign=middle;resizable=0;points=[];" vertex="1" connectable="0" parent="kyEBUp9ZziMgpIwShTHc-5">
          <mxGeometry x="0.1333" y="1" relative="1" as="geometry">
            <mxPoint as="offset" />
          </mxGeometry>
        </mxCell>
        <mxCell id="kyEBUp9ZziMgpIwShTHc-8" value="" style="rounded=1;whiteSpace=wrap;html=1;dashed=1;" vertex="1" parent="1">
          <mxGeometry x="370" y="90" width="230" height="400" as="geometry" />
        </mxCell>
        <mxCell id="kyEBUp9ZziMgpIwShTHc-9" value="插件前端" style="rounded=0;whiteSpace=wrap;html=1;" vertex="1" parent="1">
          <mxGeometry x="390" y="100" width="190" height="60" as="geometry" />
        </mxCell>
        <mxCell id="kyEBUp9ZziMgpIwShTHc-10" value="&lt;div style=&quot;&quot;&gt;&lt;br&gt;&lt;/div&gt;" style="rounded=0;whiteSpace=wrap;html=1;align=left;" vertex="1" parent="1">
          <mxGeometry x="390" y="240" width="190" height="230" as="geometry" />
        </mxCell>
        <mxCell id="kyEBUp9ZziMgpIwShTHc-21" style="edgeStyle=orthogonalEdgeStyle;rounded=0;orthogonalLoop=1;jettySize=auto;html=1;exitX=0;exitY=0.5;exitDx=0;exitDy=0;entryX=0.5;entryY=1;entryDx=0;entryDy=0;" edge="1" parent="1" source="kyEBUp9ZziMgpIwShTHc-12" target="kyEBUp9ZziMgpIwShTHc-2">
          <mxGeometry relative="1" as="geometry" />
        </mxCell>
        <mxCell id="kyEBUp9ZziMgpIwShTHc-22" value="认证" style="edgeLabel;html=1;align=center;verticalAlign=middle;resizable=0;points=[];" vertex="1" connectable="0" parent="kyEBUp9ZziMgpIwShTHc-21">
          <mxGeometry x="0.5317" y="-2" relative="1" as="geometry">
            <mxPoint as="offset" />
          </mxGeometry>
        </mxCell>
        <mxCell id="kyEBUp9ZziMgpIwShTHc-25" style="edgeStyle=orthogonalEdgeStyle;rounded=0;orthogonalLoop=1;jettySize=auto;html=1;exitX=0;exitY=0.5;exitDx=0;exitDy=0;entryX=0.5;entryY=1;entryDx=0;entryDy=0;" edge="1" parent="1" source="kyEBUp9ZziMgpIwShTHc-12" target="kyEBUp9ZziMgpIwShTHc-23">
          <mxGeometry relative="1" as="geometry" />
        </mxCell>
        <mxCell id="kyEBUp9ZziMgpIwShTHc-26" value="鉴权" style="edgeLabel;html=1;align=center;verticalAlign=middle;resizable=0;points=[];" vertex="1" connectable="0" parent="kyEBUp9ZziMgpIwShTHc-25">
          <mxGeometry x="0.0971" y="2" relative="1" as="geometry">
            <mxPoint as="offset" />
          </mxGeometry>
        </mxCell>
        <mxCell id="kyEBUp9ZziMgpIwShTHc-12" value="AuthProxy&lt;br&gt;1、用户认证&lt;br&gt;2、用户鉴权" style="ellipse;whiteSpace=wrap;html=1;" vertex="1" parent="1">
          <mxGeometry x="425" y="260" width="120" height="80" as="geometry" />
        </mxCell>
        <mxCell id="kyEBUp9ZziMgpIwShTHc-13" value="插件后端" style="ellipse;whiteSpace=wrap;html=1;" vertex="1" parent="1">
          <mxGeometry x="425" y="380" width="120" height="80" as="geometry" />
        </mxCell>
        <mxCell id="kyEBUp9ZziMgpIwShTHc-16" value="" style="endArrow=classic;html=1;rounded=0;exitX=0.5;exitY=1;exitDx=0;exitDy=0;" edge="1" parent="1" source="kyEBUp9ZziMgpIwShTHc-9" target="kyEBUp9ZziMgpIwShTHc-12">
          <mxGeometry width="50" height="50" relative="1" as="geometry">
            <mxPoint x="470" y="240" as="sourcePoint" />
            <mxPoint x="520" y="190" as="targetPoint" />
          </mxGeometry>
        </mxCell>
        <mxCell id="kyEBUp9ZziMgpIwShTHc-17" value="插件前端调用代理" style="edgeLabel;html=1;align=center;verticalAlign=middle;resizable=0;points=[];" vertex="1" connectable="0" parent="kyEBUp9ZziMgpIwShTHc-16">
          <mxGeometry x="-0.19" y="-1" relative="1" as="geometry">
            <mxPoint as="offset" />
          </mxGeometry>
        </mxCell>
        <mxCell id="kyEBUp9ZziMgpIwShTHc-19" value="" style="endArrow=classic;html=1;rounded=0;exitX=0.5;exitY=1;exitDx=0;exitDy=0;entryX=0.5;entryY=0;entryDx=0;entryDy=0;" edge="1" parent="1" source="kyEBUp9ZziMgpIwShTHc-12" target="kyEBUp9ZziMgpIwShTHc-13">
          <mxGeometry width="50" height="50" relative="1" as="geometry">
            <mxPoint x="330" y="380" as="sourcePoint" />
            <mxPoint x="380" y="330" as="targetPoint" />
          </mxGeometry>
        </mxCell>
        <mxCell id="kyEBUp9ZziMgpIwShTHc-20" value="认证鉴权成功" style="edgeLabel;html=1;align=center;verticalAlign=middle;resizable=0;points=[];" vertex="1" connectable="0" parent="kyEBUp9ZziMgpIwShTHc-19">
          <mxGeometry x="-0.4" y="1" relative="1" as="geometry">
            <mxPoint as="offset" />
          </mxGeometry>
        </mxCell>
        <mxCell id="kyEBUp9ZziMgpIwShTHc-23" value="DSP 权限" style="rounded=0;whiteSpace=wrap;html=1;" vertex="1" parent="1">
          <mxGeometry x="210" y="220" width="120" height="60" as="geometry" />
        </mxCell>
        <mxCell id="kyEBUp9ZziMgpIwShTHc-37" style="edgeStyle=orthogonalEdgeStyle;rounded=0;orthogonalLoop=1;jettySize=auto;html=1;" edge="1" parent="1" source="kyEBUp9ZziMgpIwShTHc-32" target="kyEBUp9ZziMgpIwShTHc-34">
          <mxGeometry relative="1" as="geometry" />
        </mxCell>
        <mxCell id="kyEBUp9ZziMgpIwShTHc-32" value="技术组件容器化" style="rounded=1;whiteSpace=wrap;html=1;" vertex="1" parent="1">
          <mxGeometry x="40" y="570" width="120" height="60" as="geometry" />
        </mxCell>
        <mxCell id="kyEBUp9ZziMgpIwShTHc-38" style="edgeStyle=orthogonalEdgeStyle;rounded=0;orthogonalLoop=1;jettySize=auto;html=1;" edge="1" parent="1" source="kyEBUp9ZziMgpIwShTHc-34" target="kyEBUp9ZziMgpIwShTHc-35">
          <mxGeometry relative="1" as="geometry" />
        </mxCell>
        <mxCell id="kyEBUp9ZziMgpIwShTHc-34" value="yaml编排" style="rounded=1;whiteSpace=wrap;html=1;" vertex="1" parent="1">
          <mxGeometry x="240" y="570" width="120" height="60" as="geometry" />
        </mxCell>
        <mxCell id="kyEBUp9ZziMgpIwShTHc-39" style="edgeStyle=orthogonalEdgeStyle;rounded=0;orthogonalLoop=1;jettySize=auto;html=1;exitX=0.5;exitY=1;exitDx=0;exitDy=0;entryX=0.5;entryY=0;entryDx=0;entryDy=0;" edge="1" parent="1" source="kyEBUp9ZziMgpIwShTHc-35" target="kyEBUp9ZziMgpIwShTHc-36">
          <mxGeometry relative="1" as="geometry" />
        </mxCell>
        <mxCell id="kyEBUp9ZziMgpIwShTHc-35" value="chart/operator" style="rounded=1;whiteSpace=wrap;html=1;" vertex="1" parent="1">
          <mxGeometry x="440" y="570" width="120" height="60" as="geometry" />
        </mxCell>
        <mxCell id="kyEBUp9ZziMgpIwShTHc-41" style="edgeStyle=orthogonalEdgeStyle;rounded=0;orthogonalLoop=1;jettySize=auto;html=1;exitX=0;exitY=0.5;exitDx=0;exitDy=0;entryX=1;entryY=0.5;entryDx=0;entryDy=0;" edge="1" parent="1" source="kyEBUp9ZziMgpIwShTHc-36" target="kyEBUp9ZziMgpIwShTHc-40">
          <mxGeometry relative="1" as="geometry" />
        </mxCell>
        <mxCell id="kyEBUp9ZziMgpIwShTHc-36" value="接入DSP" style="rounded=1;whiteSpace=wrap;html=1;" vertex="1" parent="1">
          <mxGeometry x="440" y="720" width="120" height="60" as="geometry" />
        </mxCell>
        <mxCell id="kyEBUp9ZziMgpIwShTHc-43" style="edgeStyle=orthogonalEdgeStyle;rounded=0;orthogonalLoop=1;jettySize=auto;html=1;exitX=0;exitY=0.5;exitDx=0;exitDy=0;entryX=1;entryY=0.5;entryDx=0;entryDy=0;" edge="1" parent="1" source="kyEBUp9ZziMgpIwShTHc-40" target="kyEBUp9ZziMgpIwShTHc-42">
          <mxGeometry relative="1" as="geometry" />
        </mxCell>
        <mxCell id="kyEBUp9ZziMgpIwShTHc-40" value="统一安装、卸载、上下架" style="rounded=1;whiteSpace=wrap;html=1;" vertex="1" parent="1">
          <mxGeometry x="240" y="720" width="120" height="60" as="geometry" />
        </mxCell>
        <mxCell id="kyEBUp9ZziMgpIwShTHc-42" value="标准化动态表单使用" style="rounded=1;whiteSpace=wrap;html=1;" vertex="1" parent="1">
          <mxGeometry x="40" y="720" width="120" height="60" as="geometry" />
        </mxCell>
        <mxCell id="kyEBUp9ZziMgpIwShTHc-46" style="edgeStyle=orthogonalEdgeStyle;rounded=0;orthogonalLoop=1;jettySize=auto;html=1;exitX=1;exitY=0.5;exitDx=0;exitDy=0;entryX=0;entryY=0.5;entryDx=0;entryDy=0;" edge="1" parent="1" source="kyEBUp9ZziMgpIwShTHc-44" target="kyEBUp9ZziMgpIwShTHc-45">
          <mxGeometry relative="1" as="geometry" />
        </mxCell>
        <mxCell id="kyEBUp9ZziMgpIwShTHc-44" value="明确功能需求" style="rounded=1;whiteSpace=wrap;html=1;" vertex="1" parent="1">
          <mxGeometry x="120" y="860" width="120" height="60" as="geometry" />
        </mxCell>
        <mxCell id="kyEBUp9ZziMgpIwShTHc-48" style="edgeStyle=orthogonalEdgeStyle;rounded=0;orthogonalLoop=1;jettySize=auto;html=1;exitX=1;exitY=0.5;exitDx=0;exitDy=0;entryX=0;entryY=0.5;entryDx=0;entryDy=0;" edge="1" parent="1" source="kyEBUp9ZziMgpIwShTHc-45" target="kyEBUp9ZziMgpIwShTHc-47">
          <mxGeometry relative="1" as="geometry" />
        </mxCell>
        <mxCell id="kyEBUp9ZziMgpIwShTHc-45" value="提供或设计OpenAPI" style="rounded=1;whiteSpace=wrap;html=1;" vertex="1" parent="1">
          <mxGeometry x="320" y="860" width="120" height="60" as="geometry" />
        </mxCell>
        <mxCell id="kyEBUp9ZziMgpIwShTHc-47" value="开发页面" style="rounded=1;whiteSpace=wrap;html=1;" vertex="1" parent="1">
          <mxGeometry x="520" y="860" width="120" height="60" as="geometry" />
        </mxCell>
      </root>
    </mxGraphModel>
  </diagram>
</mxfile>
